<mxfile host="app.diagrams.net" modified="2024-07-10T18:41:32.013Z" agent="Mozilla/5.0 (X11; Linux x86_64; rv:126.0) Gecko/20100101 Firefox/126.0" etag="TcS8a_yoe8EVW5yg9tHZ" version="24.6.4" type="device">
  <diagram id="C5RBs43oDa-KdzZeNtuy" name="Page-1">
    <mxGraphModel dx="2604" dy="2625" grid="1" gridSize="10" guides="1" tooltips="1" connect="1" arrows="1" fold="1" page="1" pageScale="1" pageWidth="827" pageHeight="1169" math="0" shadow="0">
      <root>
        <mxCell id="WIyWlLk6GJQsqaUBKTNV-0" />
        <mxCell id="WIyWlLk6GJQsqaUBKTNV-1" parent="WIyWlLk6GJQsqaUBKTNV-0" />
        <mxCell id="zkfFHV4jXpPFQw0GAbJ--0" value="SceneManager&#xa;Singleton&#xa;" style="swimlane;fontStyle=2;align=center;verticalAlign=top;childLayout=stackLayout;horizontal=1;startSize=40;horizontalStack=0;resizeParent=1;resizeLast=0;collapsible=1;marginBottom=0;rounded=0;shadow=0;strokeWidth=1;" parent="WIyWlLk6GJQsqaUBKTNV-1" vertex="1">
          <mxGeometry x="40" y="-1100" width="160" height="256" as="geometry">
            <mxRectangle x="220" y="70" width="160" height="26" as="alternateBounds" />
          </mxGeometry>
        </mxCell>
        <mxCell id="5rygWhRONN88SNYjt8ui-7" value="-s_instance" style="text;align=left;verticalAlign=top;spacingLeft=4;spacingRight=4;overflow=hidden;rotatable=0;points=[[0,0.5],[1,0.5]];portConstraint=eastwest;" parent="zkfFHV4jXpPFQw0GAbJ--0" vertex="1">
          <mxGeometry y="40" width="160" height="26" as="geometry" />
        </mxCell>
        <mxCell id="5rygWhRONN88SNYjt8ui-10" value="-m_scenes" style="text;align=left;verticalAlign=top;spacingLeft=4;spacingRight=4;overflow=hidden;rotatable=0;points=[[0,0.5],[1,0.5]];portConstraint=eastwest;" parent="zkfFHV4jXpPFQw0GAbJ--0" vertex="1">
          <mxGeometry y="66" width="160" height="26" as="geometry" />
        </mxCell>
        <mxCell id="zkfFHV4jXpPFQw0GAbJ--4" value="" style="line;html=1;strokeWidth=1;align=left;verticalAlign=middle;spacingTop=-1;spacingLeft=3;spacingRight=3;rotatable=0;labelPosition=right;points=[];portConstraint=eastwest;" parent="zkfFHV4jXpPFQw0GAbJ--0" vertex="1">
          <mxGeometry y="92" width="160" height="8" as="geometry" />
        </mxCell>
        <mxCell id="5rygWhRONN88SNYjt8ui-8" value="+Get" style="text;align=left;verticalAlign=top;spacingLeft=4;spacingRight=4;overflow=hidden;rotatable=0;points=[[0,0.5],[1,0.5]];portConstraint=eastwest;" parent="zkfFHV4jXpPFQw0GAbJ--0" vertex="1">
          <mxGeometry y="100" width="160" height="26" as="geometry" />
        </mxCell>
        <mxCell id="5rygWhRONN88SNYjt8ui-3" value="+PushScene" style="text;align=left;verticalAlign=top;spacingLeft=4;spacingRight=4;overflow=hidden;rotatable=0;points=[[0,0.5],[1,0.5]];portConstraint=eastwest;" parent="zkfFHV4jXpPFQw0GAbJ--0" vertex="1">
          <mxGeometry y="126" width="160" height="26" as="geometry" />
        </mxCell>
        <mxCell id="5rygWhRONN88SNYjt8ui-4" value="+PopScene" style="text;align=left;verticalAlign=top;spacingLeft=4;spacingRight=4;overflow=hidden;rotatable=0;points=[[0,0.5],[1,0.5]];portConstraint=eastwest;" parent="zkfFHV4jXpPFQw0GAbJ--0" vertex="1">
          <mxGeometry y="152" width="160" height="26" as="geometry" />
        </mxCell>
        <mxCell id="5rygWhRONN88SNYjt8ui-150" value="+Back" style="text;align=left;verticalAlign=top;spacingLeft=4;spacingRight=4;overflow=hidden;rotatable=0;points=[[0,0.5],[1,0.5]];portConstraint=eastwest;" parent="zkfFHV4jXpPFQw0GAbJ--0" vertex="1">
          <mxGeometry y="178" width="160" height="26" as="geometry" />
        </mxCell>
        <mxCell id="5rygWhRONN88SNYjt8ui-6" value="+Update" style="text;align=left;verticalAlign=top;spacingLeft=4;spacingRight=4;overflow=hidden;rotatable=0;points=[[0,0.5],[1,0.5]];portConstraint=eastwest;" parent="zkfFHV4jXpPFQw0GAbJ--0" vertex="1">
          <mxGeometry y="204" width="160" height="26" as="geometry" />
        </mxCell>
        <mxCell id="5rygWhRONN88SNYjt8ui-5" value="+Draw" style="text;align=left;verticalAlign=top;spacingLeft=4;spacingRight=4;overflow=hidden;rotatable=0;points=[[0,0.5],[1,0.5]];portConstraint=eastwest;" parent="zkfFHV4jXpPFQw0GAbJ--0" vertex="1">
          <mxGeometry y="230" width="160" height="26" as="geometry" />
        </mxCell>
        <mxCell id="5rygWhRONN88SNYjt8ui-62" value="Scene" style="swimlane;fontStyle=2;align=center;verticalAlign=top;childLayout=stackLayout;horizontal=1;startSize=40;horizontalStack=0;resizeParent=1;resizeLast=0;collapsible=1;marginBottom=0;rounded=0;shadow=0;strokeWidth=1;" parent="WIyWlLk6GJQsqaUBKTNV-1" vertex="1">
          <mxGeometry x="80" y="-600" width="160" height="180" as="geometry">
            <mxRectangle x="220" y="70" width="160" height="26" as="alternateBounds" />
          </mxGeometry>
        </mxCell>
        <mxCell id="5rygWhRONN88SNYjt8ui-63" value="-m_objects" style="text;align=left;verticalAlign=top;spacingLeft=4;spacingRight=4;overflow=hidden;rotatable=0;points=[[0,0.5],[1,0.5]];portConstraint=eastwest;" parent="5rygWhRONN88SNYjt8ui-62" vertex="1">
          <mxGeometry y="40" width="160" height="26" as="geometry" />
        </mxCell>
        <mxCell id="5rygWhRONN88SNYjt8ui-64" value="" style="line;html=1;strokeWidth=1;align=left;verticalAlign=middle;spacingTop=-1;spacingLeft=3;spacingRight=3;rotatable=0;labelPosition=right;points=[];portConstraint=eastwest;" parent="5rygWhRONN88SNYjt8ui-62" vertex="1">
          <mxGeometry y="66" width="160" height="8" as="geometry" />
        </mxCell>
        <mxCell id="5rygWhRONN88SNYjt8ui-65" value="+pushObject" style="text;align=left;verticalAlign=top;spacingLeft=4;spacingRight=4;overflow=hidden;rotatable=0;points=[[0,0.5],[1,0.5]];portConstraint=eastwest;" parent="5rygWhRONN88SNYjt8ui-62" vertex="1">
          <mxGeometry y="74" width="160" height="26" as="geometry" />
        </mxCell>
        <mxCell id="5rygWhRONN88SNYjt8ui-66" value="+clear" style="text;align=left;verticalAlign=top;spacingLeft=4;spacingRight=4;overflow=hidden;rotatable=0;points=[[0,0.5],[1,0.5]];portConstraint=eastwest;" parent="5rygWhRONN88SNYjt8ui-62" vertex="1">
          <mxGeometry y="100" width="160" height="26" as="geometry" />
        </mxCell>
        <mxCell id="5rygWhRONN88SNYjt8ui-67" value="+update" style="text;align=left;verticalAlign=top;spacingLeft=4;spacingRight=4;overflow=hidden;rotatable=0;points=[[0,0.5],[1,0.5]];portConstraint=eastwest;" parent="5rygWhRONN88SNYjt8ui-62" vertex="1">
          <mxGeometry y="126" width="160" height="26" as="geometry" />
        </mxCell>
        <mxCell id="5rygWhRONN88SNYjt8ui-68" value="+draw" style="text;align=left;verticalAlign=top;spacingLeft=4;spacingRight=4;overflow=hidden;rotatable=0;points=[[0,0.5],[1,0.5]];portConstraint=eastwest;" parent="5rygWhRONN88SNYjt8ui-62" vertex="1">
          <mxGeometry y="152" width="160" height="26" as="geometry" />
        </mxCell>
        <mxCell id="5rygWhRONN88SNYjt8ui-72" value="IGameObject&#xa;Interface&#xa;" style="swimlane;fontStyle=2;align=center;verticalAlign=top;childLayout=stackLayout;horizontal=1;startSize=40;horizontalStack=0;resizeParent=1;resizeLast=0;collapsible=1;marginBottom=0;rounded=0;shadow=0;strokeWidth=1;" parent="WIyWlLk6GJQsqaUBKTNV-1" vertex="1">
          <mxGeometry x="280" y="-890" width="160" height="126" as="geometry">
            <mxRectangle x="220" y="70" width="160" height="26" as="alternateBounds" />
          </mxGeometry>
        </mxCell>
        <mxCell id="5rygWhRONN88SNYjt8ui-74" value="" style="line;html=1;strokeWidth=1;align=left;verticalAlign=middle;spacingTop=-1;spacingLeft=3;spacingRight=3;rotatable=0;labelPosition=right;points=[];portConstraint=eastwest;" parent="5rygWhRONN88SNYjt8ui-72" vertex="1">
          <mxGeometry y="40" width="160" height="8" as="geometry" />
        </mxCell>
        <mxCell id="5rygWhRONN88SNYjt8ui-75" value="+update" style="text;align=left;verticalAlign=top;spacingLeft=4;spacingRight=4;overflow=hidden;rotatable=0;points=[[0,0.5],[1,0.5]];portConstraint=eastwest;" parent="5rygWhRONN88SNYjt8ui-72" vertex="1">
          <mxGeometry y="48" width="160" height="26" as="geometry" />
        </mxCell>
        <mxCell id="5rygWhRONN88SNYjt8ui-76" value="+draw" style="text;align=left;verticalAlign=top;spacingLeft=4;spacingRight=4;overflow=hidden;rotatable=0;points=[[0,0.5],[1,0.5]];portConstraint=eastwest;" parent="5rygWhRONN88SNYjt8ui-72" vertex="1">
          <mxGeometry y="74" width="160" height="26" as="geometry" />
        </mxCell>
        <mxCell id="5rygWhRONN88SNYjt8ui-90" value="" style="endArrow=classic;html=1;rounded=0;exitX=0.5;exitY=1;exitDx=0;exitDy=0;entryX=0.5;entryY=0;entryDx=0;entryDy=0;" parent="WIyWlLk6GJQsqaUBKTNV-1" source="5rygWhRONN88SNYjt8ui-72" target="5rygWhRONN88SNYjt8ui-62" edge="1">
          <mxGeometry relative="1" as="geometry">
            <mxPoint x="210" y="-690" as="sourcePoint" />
            <mxPoint x="370" y="-690" as="targetPoint" />
            <Array as="points">
              <mxPoint x="360" y="-660" />
              <mxPoint x="240" y="-660" />
              <mxPoint x="160" y="-660" />
            </Array>
          </mxGeometry>
        </mxCell>
        <mxCell id="5rygWhRONN88SNYjt8ui-93" value="Child" style="edgeLabel;resizable=0;html=1;;align=right;verticalAlign=bottom;" parent="5rygWhRONN88SNYjt8ui-90" connectable="0" vertex="1">
          <mxGeometry x="1" relative="1" as="geometry" />
        </mxCell>
        <mxCell id="5rygWhRONN88SNYjt8ui-95" value="" style="endArrow=classic;html=1;rounded=0;entryX=0.001;entryY=0.133;entryDx=0;entryDy=0;entryPerimeter=0;" parent="WIyWlLk6GJQsqaUBKTNV-1" target="5rygWhRONN88SNYjt8ui-62" edge="1">
          <mxGeometry relative="1" as="geometry">
            <mxPoint x="40" y="-1021" as="sourcePoint" />
            <mxPoint x="30" y="-660" as="targetPoint" />
            <Array as="points">
              <mxPoint x="20" y="-1021" />
              <mxPoint x="20" y="-576" />
            </Array>
          </mxGeometry>
        </mxCell>
        <mxCell id="5rygWhRONN88SNYjt8ui-96" value="List Of" style="edgeLabel;resizable=0;html=1;;align=center;verticalAlign=middle;" parent="5rygWhRONN88SNYjt8ui-95" connectable="0" vertex="1">
          <mxGeometry relative="1" as="geometry" />
        </mxCell>
        <mxCell id="5rygWhRONN88SNYjt8ui-113" value="Button" style="swimlane;fontStyle=2;align=center;verticalAlign=top;childLayout=stackLayout;horizontal=1;startSize=40;horizontalStack=0;resizeParent=1;resizeLast=0;collapsible=1;marginBottom=0;rounded=0;shadow=0;strokeWidth=1;" parent="WIyWlLk6GJQsqaUBKTNV-1" vertex="1">
          <mxGeometry x="280" y="-600" width="160" height="204" as="geometry">
            <mxRectangle x="220" y="70" width="160" height="26" as="alternateBounds" />
          </mxGeometry>
        </mxCell>
        <mxCell id="5rygWhRONN88SNYjt8ui-114" value="-m_body" style="text;align=left;verticalAlign=top;spacingLeft=4;spacingRight=4;overflow=hidden;rotatable=0;points=[[0,0.5],[1,0.5]];portConstraint=eastwest;" parent="5rygWhRONN88SNYjt8ui-113" vertex="1">
          <mxGeometry y="40" width="160" height="26" as="geometry" />
        </mxCell>
        <mxCell id="5rygWhRONN88SNYjt8ui-124" value="-m_color" style="text;align=left;verticalAlign=top;spacingLeft=4;spacingRight=4;overflow=hidden;rotatable=0;points=[[0,0.5],[1,0.5]];portConstraint=eastwest;" parent="5rygWhRONN88SNYjt8ui-113" vertex="1">
          <mxGeometry y="66" width="160" height="26" as="geometry" />
        </mxCell>
        <mxCell id="5rygWhRONN88SNYjt8ui-119" value="-m_onClick" style="text;align=left;verticalAlign=top;spacingLeft=4;spacingRight=4;overflow=hidden;rotatable=0;points=[[0,0.5],[1,0.5]];portConstraint=eastwest;" parent="5rygWhRONN88SNYjt8ui-113" vertex="1">
          <mxGeometry y="92" width="160" height="26" as="geometry" />
        </mxCell>
        <mxCell id="5rygWhRONN88SNYjt8ui-115" value="" style="line;html=1;strokeWidth=1;align=left;verticalAlign=middle;spacingTop=-1;spacingLeft=3;spacingRight=3;rotatable=0;labelPosition=right;points=[];portConstraint=eastwest;" parent="5rygWhRONN88SNYjt8ui-113" vertex="1">
          <mxGeometry y="118" width="160" height="8" as="geometry" />
        </mxCell>
        <mxCell id="5rygWhRONN88SNYjt8ui-116" value="+isPressed" style="text;align=left;verticalAlign=top;spacingLeft=4;spacingRight=4;overflow=hidden;rotatable=0;points=[[0,0.5],[1,0.5]];portConstraint=eastwest;" parent="5rygWhRONN88SNYjt8ui-113" vertex="1">
          <mxGeometry y="126" width="160" height="26" as="geometry" />
        </mxCell>
        <mxCell id="5rygWhRONN88SNYjt8ui-126" value="+setColor" style="text;align=left;verticalAlign=top;spacingLeft=4;spacingRight=4;overflow=hidden;rotatable=0;points=[[0,0.5],[1,0.5]];portConstraint=eastwest;" parent="5rygWhRONN88SNYjt8ui-113" vertex="1">
          <mxGeometry y="152" width="160" height="26" as="geometry" />
        </mxCell>
        <mxCell id="5rygWhRONN88SNYjt8ui-117" value="-onClick" style="text;align=left;verticalAlign=top;spacingLeft=4;spacingRight=4;overflow=hidden;rotatable=0;points=[[0,0.5],[1,0.5]];portConstraint=eastwest;" parent="5rygWhRONN88SNYjt8ui-113" vertex="1">
          <mxGeometry y="178" width="160" height="26" as="geometry" />
        </mxCell>
        <mxCell id="5rygWhRONN88SNYjt8ui-121" value="" style="endArrow=classic;html=1;rounded=0;entryX=0.5;entryY=0;entryDx=0;entryDy=0;exitX=0.5;exitY=1;exitDx=0;exitDy=0;" parent="WIyWlLk6GJQsqaUBKTNV-1" source="5rygWhRONN88SNYjt8ui-72" target="5rygWhRONN88SNYjt8ui-113" edge="1">
          <mxGeometry relative="1" as="geometry">
            <mxPoint x="360" y="-760" as="sourcePoint" />
            <mxPoint x="544" y="-570.06" as="targetPoint" />
          </mxGeometry>
        </mxCell>
        <mxCell id="5rygWhRONN88SNYjt8ui-122" value="Inheritance" style="edgeLabel;resizable=0;html=1;;align=center;verticalAlign=middle;" parent="5rygWhRONN88SNYjt8ui-121" connectable="0" vertex="1">
          <mxGeometry relative="1" as="geometry" />
        </mxCell>
        <mxCell id="5rygWhRONN88SNYjt8ui-123" value="Child" style="edgeLabel;resizable=0;html=1;;align=right;verticalAlign=bottom;" parent="5rygWhRONN88SNYjt8ui-121" connectable="0" vertex="1">
          <mxGeometry x="1" relative="1" as="geometry" />
        </mxCell>
        <mxCell id="5rygWhRONN88SNYjt8ui-130" value="Map" style="swimlane;fontStyle=0;childLayout=stackLayout;horizontal=1;startSize=30;horizontalStack=0;resizeParent=1;resizeParentMax=0;resizeLast=0;collapsible=1;marginBottom=0;whiteSpace=wrap;html=1;" parent="WIyWlLk6GJQsqaUBKTNV-1" vertex="1">
          <mxGeometry x="880" y="-1120" width="260" height="60" as="geometry" />
        </mxCell>
        <mxCell id="5rygWhRONN88SNYjt8ui-133" value="Implement map" style="text;strokeColor=none;fillColor=none;align=left;verticalAlign=middle;spacingLeft=4;spacingRight=4;overflow=hidden;points=[[0,0.5],[1,0.5]];portConstraint=eastwest;rotatable=0;whiteSpace=wrap;html=1;" parent="5rygWhRONN88SNYjt8ui-130" vertex="1">
          <mxGeometry y="30" width="260" height="30" as="geometry" />
        </mxCell>
        <mxCell id="5rygWhRONN88SNYjt8ui-140" value="INode&#xa;Interface&#xa;" style="swimlane;fontStyle=2;align=center;verticalAlign=top;childLayout=stackLayout;horizontal=1;startSize=40;horizontalStack=0;resizeParent=1;resizeLast=0;collapsible=1;marginBottom=0;rounded=0;shadow=0;strokeWidth=1;" parent="WIyWlLk6GJQsqaUBKTNV-1" vertex="1">
          <mxGeometry x="280" y="-1080" width="160" height="110" as="geometry">
            <mxRectangle x="220" y="70" width="160" height="26" as="alternateBounds" />
          </mxGeometry>
        </mxCell>
        <mxCell id="5rygWhRONN88SNYjt8ui-147" value="-layer" style="text;align=left;verticalAlign=top;spacingLeft=4;spacingRight=4;overflow=hidden;rotatable=0;points=[[0,0.5],[1,0.5]];portConstraint=eastwest;" parent="5rygWhRONN88SNYjt8ui-140" vertex="1">
          <mxGeometry y="40" width="160" height="26" as="geometry" />
        </mxCell>
        <mxCell id="5rygWhRONN88SNYjt8ui-141" value="" style="line;html=1;strokeWidth=1;align=left;verticalAlign=middle;spacingTop=-1;spacingLeft=3;spacingRight=3;rotatable=0;labelPosition=right;points=[];portConstraint=eastwest;" parent="5rygWhRONN88SNYjt8ui-140" vertex="1">
          <mxGeometry y="66" width="160" height="8" as="geometry" />
        </mxCell>
        <mxCell id="5rygWhRONN88SNYjt8ui-143" value="+getLayer" style="text;align=left;verticalAlign=top;spacingLeft=4;spacingRight=4;overflow=hidden;rotatable=0;points=[[0,0.5],[1,0.5]];portConstraint=eastwest;" parent="5rygWhRONN88SNYjt8ui-140" vertex="1">
          <mxGeometry y="74" width="160" height="26" as="geometry" />
        </mxCell>
        <mxCell id="5rygWhRONN88SNYjt8ui-144" value="" style="endArrow=classic;html=1;rounded=0;entryX=0.5;entryY=0;entryDx=0;entryDy=0;exitX=0.5;exitY=1;exitDx=0;exitDy=0;" parent="WIyWlLk6GJQsqaUBKTNV-1" source="5rygWhRONN88SNYjt8ui-140" target="5rygWhRONN88SNYjt8ui-72" edge="1">
          <mxGeometry relative="1" as="geometry">
            <mxPoint x="150" y="-980.06" as="sourcePoint" />
            <mxPoint x="344" y="-870.06" as="targetPoint" />
          </mxGeometry>
        </mxCell>
        <mxCell id="5rygWhRONN88SNYjt8ui-145" value="Inheritance" style="edgeLabel;resizable=0;html=1;;align=center;verticalAlign=middle;" parent="5rygWhRONN88SNYjt8ui-144" connectable="0" vertex="1">
          <mxGeometry relative="1" as="geometry" />
        </mxCell>
        <mxCell id="5rygWhRONN88SNYjt8ui-146" value="Child" style="edgeLabel;resizable=0;html=1;;align=right;verticalAlign=bottom;" parent="5rygWhRONN88SNYjt8ui-144" connectable="0" vertex="1">
          <mxGeometry x="1" relative="1" as="geometry" />
        </mxCell>
        <mxCell id="5rygWhRONN88SNYjt8ui-151" value="Map" style="swimlane;fontStyle=2;align=center;verticalAlign=top;childLayout=stackLayout;horizontal=1;startSize=40;horizontalStack=0;resizeParent=1;resizeLast=0;collapsible=1;marginBottom=0;rounded=0;shadow=0;strokeWidth=1;" parent="WIyWlLk6GJQsqaUBKTNV-1" vertex="1">
          <mxGeometry x="480" y="-600" width="160" height="230" as="geometry">
            <mxRectangle x="220" y="70" width="160" height="26" as="alternateBounds" />
          </mxGeometry>
        </mxCell>
        <mxCell id="5rygWhRONN88SNYjt8ui-152" value="-m_data" style="text;align=left;verticalAlign=top;spacingLeft=4;spacingRight=4;overflow=hidden;rotatable=0;points=[[0,0.5],[1,0.5]];portConstraint=eastwest;" parent="5rygWhRONN88SNYjt8ui-151" vertex="1">
          <mxGeometry y="40" width="160" height="26" as="geometry" />
        </mxCell>
        <mxCell id="5rygWhRONN88SNYjt8ui-160" value="-m_width" style="text;align=left;verticalAlign=top;spacingLeft=4;spacingRight=4;overflow=hidden;rotatable=0;points=[[0,0.5],[1,0.5]];portConstraint=eastwest;" parent="5rygWhRONN88SNYjt8ui-151" vertex="1">
          <mxGeometry y="66" width="160" height="26" as="geometry" />
        </mxCell>
        <mxCell id="5rygWhRONN88SNYjt8ui-161" value="-m_height" style="text;align=left;verticalAlign=top;spacingLeft=4;spacingRight=4;overflow=hidden;rotatable=0;points=[[0,0.5],[1,0.5]];portConstraint=eastwest;" parent="5rygWhRONN88SNYjt8ui-151" vertex="1">
          <mxGeometry y="92" width="160" height="26" as="geometry" />
        </mxCell>
        <mxCell id="5rygWhRONN88SNYjt8ui-162" value="-m_tiler" style="text;align=left;verticalAlign=top;spacingLeft=4;spacingRight=4;overflow=hidden;rotatable=0;points=[[0,0.5],[1,0.5]];portConstraint=eastwest;" parent="5rygWhRONN88SNYjt8ui-151" vertex="1">
          <mxGeometry y="118" width="160" height="26" as="geometry" />
        </mxCell>
        <mxCell id="5rygWhRONN88SNYjt8ui-153" value="" style="line;html=1;strokeWidth=1;align=left;verticalAlign=middle;spacingTop=-1;spacingLeft=3;spacingRight=3;rotatable=0;labelPosition=right;points=[];portConstraint=eastwest;" parent="5rygWhRONN88SNYjt8ui-151" vertex="1">
          <mxGeometry y="144" width="160" height="8" as="geometry" />
        </mxCell>
        <mxCell id="5rygWhRONN88SNYjt8ui-154" value="+attachTiler" style="text;align=left;verticalAlign=top;spacingLeft=4;spacingRight=4;overflow=hidden;rotatable=0;points=[[0,0.5],[1,0.5]];portConstraint=eastwest;" parent="5rygWhRONN88SNYjt8ui-151" vertex="1">
          <mxGeometry y="152" width="160" height="26" as="geometry" />
        </mxCell>
        <mxCell id="5rygWhRONN88SNYjt8ui-158" value="+loadFromFile" style="text;align=left;verticalAlign=top;spacingLeft=4;spacingRight=4;overflow=hidden;rotatable=0;points=[[0,0.5],[1,0.5]];portConstraint=eastwest;" parent="5rygWhRONN88SNYjt8ui-151" vertex="1">
          <mxGeometry y="178" width="160" height="26" as="geometry" />
        </mxCell>
        <mxCell id="5rygWhRONN88SNYjt8ui-171" value="-spawnCreeps" style="text;align=left;verticalAlign=top;spacingLeft=4;spacingRight=4;overflow=hidden;rotatable=0;points=[[0,0.5],[1,0.5]];portConstraint=eastwest;" parent="5rygWhRONN88SNYjt8ui-151" vertex="1">
          <mxGeometry y="204" width="160" height="26" as="geometry" />
        </mxCell>
        <mxCell id="5rygWhRONN88SNYjt8ui-155" value="" style="endArrow=classic;html=1;rounded=0;entryX=0.5;entryY=0;entryDx=0;entryDy=0;exitX=0.5;exitY=1;exitDx=0;exitDy=0;" parent="WIyWlLk6GJQsqaUBKTNV-1" source="5rygWhRONN88SNYjt8ui-72" target="5rygWhRONN88SNYjt8ui-151" edge="1">
          <mxGeometry relative="1" as="geometry">
            <mxPoint x="390" y="-720.06" as="sourcePoint" />
            <mxPoint x="584" y="-610.06" as="targetPoint" />
            <Array as="points">
              <mxPoint x="360" y="-660" />
              <mxPoint x="560" y="-660" />
            </Array>
          </mxGeometry>
        </mxCell>
        <mxCell id="5rygWhRONN88SNYjt8ui-157" value="Child" style="edgeLabel;resizable=0;html=1;;align=right;verticalAlign=bottom;" parent="5rygWhRONN88SNYjt8ui-155" connectable="0" vertex="1">
          <mxGeometry x="1" relative="1" as="geometry" />
        </mxCell>
        <mxCell id="5rygWhRONN88SNYjt8ui-166" value="Tiler" style="swimlane;fontStyle=2;align=center;verticalAlign=top;childLayout=stackLayout;horizontal=1;startSize=40;horizontalStack=0;resizeParent=1;resizeLast=0;collapsible=1;marginBottom=0;rounded=0;shadow=0;strokeWidth=1;" parent="WIyWlLk6GJQsqaUBKTNV-1" vertex="1">
          <mxGeometry x="480" y="-340" width="160" height="120" as="geometry">
            <mxRectangle x="220" y="70" width="160" height="26" as="alternateBounds" />
          </mxGeometry>
        </mxCell>
        <mxCell id="5rygWhRONN88SNYjt8ui-167" value="-m_textures" style="text;align=left;verticalAlign=top;spacingLeft=4;spacingRight=4;overflow=hidden;rotatable=0;points=[[0,0.5],[1,0.5]];portConstraint=eastwest;" parent="5rygWhRONN88SNYjt8ui-166" vertex="1">
          <mxGeometry y="40" width="160" height="26" as="geometry" />
        </mxCell>
        <mxCell id="5rygWhRONN88SNYjt8ui-168" value="" style="line;html=1;strokeWidth=1;align=left;verticalAlign=middle;spacingTop=-1;spacingLeft=3;spacingRight=3;rotatable=0;labelPosition=right;points=[];portConstraint=eastwest;" parent="5rygWhRONN88SNYjt8ui-166" vertex="1">
          <mxGeometry y="66" width="160" height="8" as="geometry" />
        </mxCell>
        <mxCell id="5rygWhRONN88SNYjt8ui-169" value="+m_drawMap" style="text;align=left;verticalAlign=top;spacingLeft=4;spacingRight=4;overflow=hidden;rotatable=0;points=[[0,0.5],[1,0.5]];portConstraint=eastwest;" parent="5rygWhRONN88SNYjt8ui-166" vertex="1">
          <mxGeometry y="74" width="160" height="26" as="geometry" />
        </mxCell>
        <mxCell id="5rygWhRONN88SNYjt8ui-164" value="" style="endArrow=classic;html=1;rounded=0;exitX=-0.002;exitY=0.455;exitDx=0;exitDy=0;exitPerimeter=0;entryX=0;entryY=0.25;entryDx=0;entryDy=0;" parent="WIyWlLk6GJQsqaUBKTNV-1" source="5rygWhRONN88SNYjt8ui-162" target="5rygWhRONN88SNYjt8ui-166" edge="1">
          <mxGeometry relative="1" as="geometry">
            <mxPoint x="480" y="-469" as="sourcePoint" />
            <mxPoint x="482" y="-300" as="targetPoint" />
            <Array as="points">
              <mxPoint x="470" y="-470" />
              <mxPoint x="470" y="-310" />
            </Array>
          </mxGeometry>
        </mxCell>
        <mxCell id="5rygWhRONN88SNYjt8ui-165" value="Member Type" style="edgeLabel;resizable=0;html=1;;align=center;verticalAlign=middle;" parent="5rygWhRONN88SNYjt8ui-164" connectable="0" vertex="1">
          <mxGeometry relative="1" as="geometry">
            <mxPoint y="41" as="offset" />
          </mxGeometry>
        </mxCell>
        <mxCell id="5rygWhRONN88SNYjt8ui-174" value="Creep" style="swimlane;fontStyle=2;align=center;verticalAlign=top;childLayout=stackLayout;horizontal=1;startSize=40;horizontalStack=0;resizeParent=1;resizeLast=0;collapsible=1;marginBottom=0;rounded=0;shadow=0;strokeWidth=1;" parent="WIyWlLk6GJQsqaUBKTNV-1" vertex="1">
          <mxGeometry x="680" y="-600" width="160" height="172" as="geometry">
            <mxRectangle x="220" y="70" width="160" height="26" as="alternateBounds" />
          </mxGeometry>
        </mxCell>
        <mxCell id="5rygWhRONN88SNYjt8ui-175" value="-m_body" style="text;align=left;verticalAlign=top;spacingLeft=4;spacingRight=4;overflow=hidden;rotatable=0;points=[[0,0.5],[1,0.5]];portConstraint=eastwest;" parent="5rygWhRONN88SNYjt8ui-174" vertex="1">
          <mxGeometry y="40" width="160" height="26" as="geometry" />
        </mxCell>
        <mxCell id="5rygWhRONN88SNYjt8ui-176" value="" style="line;html=1;strokeWidth=1;align=left;verticalAlign=middle;spacingTop=-1;spacingLeft=3;spacingRight=3;rotatable=0;labelPosition=right;points=[];portConstraint=eastwest;" parent="5rygWhRONN88SNYjt8ui-174" vertex="1">
          <mxGeometry y="66" width="160" height="8" as="geometry" />
        </mxCell>
        <mxCell id="5rygWhRONN88SNYjt8ui-172" value="" style="endArrow=classic;html=1;rounded=0;exitX=1;exitY=0.5;exitDx=0;exitDy=0;" parent="WIyWlLk6GJQsqaUBKTNV-1" source="5rygWhRONN88SNYjt8ui-171" edge="1">
          <mxGeometry relative="1" as="geometry">
            <mxPoint x="630" y="-380.05999999999995" as="sourcePoint" />
            <mxPoint x="680" y="-580" as="targetPoint" />
            <Array as="points">
              <mxPoint x="660" y="-383" />
              <mxPoint x="660" y="-490" />
              <mxPoint x="660" y="-580" />
            </Array>
          </mxGeometry>
        </mxCell>
        <mxCell id="5rygWhRONN88SNYjt8ui-173" value="Spawns" style="edgeLabel;resizable=0;html=1;;align=center;verticalAlign=middle;" parent="5rygWhRONN88SNYjt8ui-172" connectable="0" vertex="1">
          <mxGeometry relative="1" as="geometry" />
        </mxCell>
        <mxCell id="5rygWhRONN88SNYjt8ui-178" value="" style="endArrow=classic;html=1;rounded=0;entryX=0.25;entryY=0;entryDx=0;entryDy=0;exitX=1.001;exitY=0.256;exitDx=0;exitDy=0;exitPerimeter=0;" parent="WIyWlLk6GJQsqaUBKTNV-1" source="5rygWhRONN88SNYjt8ui-72" target="5rygWhRONN88SNYjt8ui-174" edge="1">
          <mxGeometry relative="1" as="geometry">
            <mxPoint x="480" y="-920.06" as="sourcePoint" />
            <mxPoint x="674" y="-810.06" as="targetPoint" />
            <Array as="points">
              <mxPoint x="450" y="-858" />
              <mxPoint x="450" y="-660" />
              <mxPoint x="720" y="-660" />
            </Array>
          </mxGeometry>
        </mxCell>
        <mxCell id="5rygWhRONN88SNYjt8ui-180" value="Child" style="edgeLabel;resizable=0;html=1;;align=right;verticalAlign=bottom;" parent="5rygWhRONN88SNYjt8ui-178" connectable="0" vertex="1">
          <mxGeometry x="1" relative="1" as="geometry" />
        </mxCell>
        <mxCell id="7xclB2vifKTNQvDtEUNv-0" value="Creep" style="swimlane;fontStyle=0;childLayout=stackLayout;horizontal=1;startSize=30;horizontalStack=0;resizeParent=1;resizeParentMax=0;resizeLast=0;collapsible=1;marginBottom=0;whiteSpace=wrap;html=1;" vertex="1" parent="WIyWlLk6GJQsqaUBKTNV-1">
          <mxGeometry x="880" y="-1050" width="260" height="120" as="geometry" />
        </mxCell>
        <mxCell id="7xclB2vifKTNQvDtEUNv-1" value="Write Creep in structure" style="text;strokeColor=none;fillColor=none;align=left;verticalAlign=middle;spacingLeft=4;spacingRight=4;overflow=hidden;points=[[0,0.5],[1,0.5]];portConstraint=eastwest;rotatable=0;whiteSpace=wrap;html=1;" vertex="1" parent="7xclB2vifKTNQvDtEUNv-0">
          <mxGeometry y="30" width="260" height="30" as="geometry" />
        </mxCell>
        <mxCell id="7xclB2vifKTNQvDtEUNv-2" value="Write Creep as class" style="text;strokeColor=none;fillColor=none;align=left;verticalAlign=middle;spacingLeft=4;spacingRight=4;overflow=hidden;points=[[0,0.5],[1,0.5]];portConstraint=eastwest;rotatable=0;whiteSpace=wrap;html=1;" vertex="1" parent="7xclB2vifKTNQvDtEUNv-0">
          <mxGeometry y="60" width="260" height="30" as="geometry" />
        </mxCell>
        <mxCell id="7xclB2vifKTNQvDtEUNv-3" value="Implement Creep" style="text;strokeColor=none;fillColor=none;align=left;verticalAlign=middle;spacingLeft=4;spacingRight=4;overflow=hidden;points=[[0,0.5],[1,0.5]];portConstraint=eastwest;rotatable=0;whiteSpace=wrap;html=1;" vertex="1" parent="7xclB2vifKTNQvDtEUNv-0">
          <mxGeometry y="90" width="260" height="30" as="geometry" />
        </mxCell>
        <mxCell id="7xclB2vifKTNQvDtEUNv-4" value="Tiler" style="swimlane;fontStyle=0;childLayout=stackLayout;horizontal=1;startSize=30;horizontalStack=0;resizeParent=1;resizeParentMax=0;resizeLast=0;collapsible=1;marginBottom=0;whiteSpace=wrap;html=1;" vertex="1" parent="WIyWlLk6GJQsqaUBKTNV-1">
          <mxGeometry x="880" y="-910" width="260" height="150" as="geometry" />
        </mxCell>
        <mxCell id="7xclB2vifKTNQvDtEUNv-5" value="Write&amp;nbsp;Tiler in structure" style="text;strokeColor=none;fillColor=none;align=left;verticalAlign=middle;spacingLeft=4;spacingRight=4;overflow=hidden;points=[[0,0.5],[1,0.5]];portConstraint=eastwest;rotatable=0;whiteSpace=wrap;html=1;" vertex="1" parent="7xclB2vifKTNQvDtEUNv-4">
          <mxGeometry y="30" width="260" height="30" as="geometry" />
        </mxCell>
        <mxCell id="7xclB2vifKTNQvDtEUNv-6" value="Write&amp;nbsp;Tiler as class" style="text;strokeColor=none;fillColor=none;align=left;verticalAlign=middle;spacingLeft=4;spacingRight=4;overflow=hidden;points=[[0,0.5],[1,0.5]];portConstraint=eastwest;rotatable=0;whiteSpace=wrap;html=1;" vertex="1" parent="7xclB2vifKTNQvDtEUNv-4">
          <mxGeometry y="60" width="260" height="30" as="geometry" />
        </mxCell>
        <mxCell id="7xclB2vifKTNQvDtEUNv-7" value="Implement Tiler" style="text;strokeColor=none;fillColor=none;align=left;verticalAlign=middle;spacingLeft=4;spacingRight=4;overflow=hidden;points=[[0,0.5],[1,0.5]];portConstraint=eastwest;rotatable=0;whiteSpace=wrap;html=1;" vertex="1" parent="7xclB2vifKTNQvDtEUNv-4">
          <mxGeometry y="90" width="260" height="30" as="geometry" />
        </mxCell>
        <mxCell id="7xclB2vifKTNQvDtEUNv-8" value="Add real Tiler to Map" style="text;strokeColor=none;fillColor=none;align=left;verticalAlign=middle;spacingLeft=4;spacingRight=4;overflow=hidden;points=[[0,0.5],[1,0.5]];portConstraint=eastwest;rotatable=0;whiteSpace=wrap;html=1;" vertex="1" parent="7xclB2vifKTNQvDtEUNv-4">
          <mxGeometry y="120" width="260" height="30" as="geometry" />
        </mxCell>
        <mxCell id="7xclB2vifKTNQvDtEUNv-9" style="edgeStyle=orthogonalEdgeStyle;rounded=0;orthogonalLoop=1;jettySize=auto;html=1;exitX=1;exitY=0.5;exitDx=0;exitDy=0;entryX=1;entryY=0.5;entryDx=0;entryDy=0;" edge="1" parent="WIyWlLk6GJQsqaUBKTNV-1" source="7xclB2vifKTNQvDtEUNv-8" target="5rygWhRONN88SNYjt8ui-133">
          <mxGeometry relative="1" as="geometry" />
        </mxCell>
      </root>
    </mxGraphModel>
  </diagram>
</mxfile>
